<svg xmlns="http://www.w3.org/2000/svg" xmlns:xlink="http://www.w3.org/1999/xlink" viewBox="0 0 53 76" fill="#fff" fill-rule="evenodd" stroke="#000" stroke-linecap="round" stroke-linejoin="round"><use xlink:href="#A" x=".5" y=".5"/><symbol id="A" overflow="visible"><g stroke="#007846" stroke-linejoin="miter" fill="#007846" fill-rule="nonzero" stroke-width=".199"><path d="M34.458 21.517l15.509-2.468c-.088-1.068-1.26-3.315-1.7-4.268-.905-1.962-2.018-3.777-3.643-5.226-3.272-2.917-7.364-4.266-11.61-4.984-3.315-.56-6.627-.535-9.975-.535-6.917 0-15.381 3.195-18.649 9.694-2.522 5.016-3.109 11.956.092 16.794 3.084 4.661 7.999 6.817 13.011 8.713 5.226 1.977 17.29 1.9 18.563 9.03 1.01 5.657-6.9 9.194-11.433 7.842-2.15-.642-4.138-2.277-5.542-3.989-.263-.321-2.902-5.498-2.326-5.57 0 0-16.753 2.086-16.755 2.086 1.778 7.768 7.049 14.017 14.659 16.542 2.149.713 4.572 1.372 6.833 1.568 5.985.517 11.569.005 17.325-1.771 3.417-1.054 6.504-2.854 8.71-5.716 4.67-6.058 5.831-16.171 1.049-22.483-3.057-4.035-8.2-5.965-12.844-7.513-4.921-1.641-7.558-2.659-12.619-3.607-3.388-.634-6.498-5.088-4.033-8.182 2.39-3 6.656-2.977 10.175-2.348 0 0 1.796.852 2.984 2.252 1.389 1.639 2.219 4.139 2.219 4.139z"/><path d="M23.038 0h6.084v74.85h-6.084z"/></g></symbol></svg>